<svg width="55" height="55" viewBox="0 0 55 55" fill="none" xmlns="http://www.w3.org/2000/svg">
<path d="M28.3594 36.9531C33.098 36.9531 36.9531 33.098 36.9531 28.3594C36.9531 23.6208 33.098 19.7656 28.3594 19.7656C23.6208 19.7656 19.7656 23.6208 19.7656 28.3594C19.7656 33.098 23.6208 36.9531 28.3594 36.9531ZM35.2344 28.3594C35.2344 32.1501 32.1501 35.2344 28.3594 35.2344C24.86 35.2344 21.9691 32.6047 21.5437 29.2188H25.0439C25.428 30.6969 26.7627 31.7969 28.3594 31.7969C30.2552 31.7969 31.7969 30.2552 31.7969 28.3594C31.7969 27.6762 31.5906 27.0428 31.246 26.5066L33.6205 23.9422C34.6259 25.1384 35.2344 26.6784 35.2344 28.3594ZM30.0781 28.3594C30.0781 29.3073 29.3073 30.0781 28.3594 30.0781C27.4115 30.0781 26.6406 29.3073 26.6406 28.3594C26.6406 27.4115 27.4115 26.6406 28.3594 26.6406C29.3073 26.6406 30.0781 27.4115 30.0781 28.3594ZM28.3594 21.4844C29.8512 21.4844 31.2288 21.9673 32.3572 22.7769L29.9784 25.3455C29.4937 25.0843 28.948 24.9219 28.3594 24.9219C26.7627 24.9219 25.428 26.0219 25.0439 27.5H21.5437C21.9691 24.1141 24.86 21.4844 28.3594 21.4844Z" fill="#1B73E8"/>
<path d="M49.8438 0.859375C47.4745 0.859375 45.5469 2.78695 45.5469 5.15625C45.5469 6.08953 45.8537 6.94719 46.3607 7.65273L44.4383 9.72898C43.9777 9.55969 43.487 9.45312 42.9688 9.45312H5.15625C2.78695 9.45312 0.859375 11.3807 0.859375 13.75V39.5312C0.859375 41.9005 2.78695 43.8281 5.15625 43.8281H19.7656V45.5469H11.6016L8.59375 49.5576V54.1406H39.5312V49.5576L36.5234 45.5469H28.3594V43.8281H38.1391C39.6816 45.5761 41.2002 47.3 42.1266 48.351C42.961 49.2998 44.1667 49.8438 45.4334 49.8438C47.8655 49.8438 49.8438 47.8655 49.8438 45.4283C49.8438 44.165 49.3006 42.9602 48.3545 42.124L47.0198 40.9441C47.1771 40.492 47.2656 40.0142 47.2656 39.5312V13.75C47.2656 12.5297 46.7483 11.4323 45.9284 10.6494L47.6248 8.81719C48.2745 9.2125 49.0291 9.45312 49.8438 9.45312C52.213 9.45312 54.1406 7.52555 54.1406 5.15625C54.1406 2.78695 52.213 0.859375 49.8438 0.859375ZM12.4609 47.2656H19.7656V48.9844H11.1719L12.4609 47.2656ZM10.3125 52.4219V50.7031H37.8125V52.4219H10.3125ZM35.6641 47.2656L36.9531 48.9844H28.3594V47.2656H35.6641ZM26.6406 48.9844H21.4844V43.8281H26.6406V48.9844ZM48.125 45.4334C48.125 46.9176 46.9176 48.125 45.4334 48.125C44.66 48.125 43.9252 47.7933 43.4156 47.2158C41.5877 45.1395 37.4567 40.4508 35.3736 38.1141C36.4298 37.3527 37.3562 36.4263 38.1176 35.3693L47.2158 43.4122C47.7933 43.9227 48.125 44.6574 48.125 45.4334ZM40.5599 35.2344L39.0345 33.886C39.8956 32.2291 40.3906 30.3523 40.3906 28.3594C40.3906 25.1857 39.1463 22.3034 37.131 20.1506L42.1094 14.7744V35.2344H40.5599ZM35.8737 18.9784C33.813 17.3241 31.2022 16.3281 28.3594 16.3281C22.0155 16.3281 16.8154 21.267 16.372 27.5H14.4873C14.1032 26.0219 12.7686 24.9219 11.1719 24.9219C9.27609 24.9219 7.73438 26.4636 7.73438 28.3594C7.73438 30.2552 9.27609 31.7969 11.1719 31.7969C12.7686 31.7969 14.1032 30.6969 14.4873 29.2188H16.372C16.5301 31.4454 17.2906 33.5045 18.5006 35.2344H6.01562V14.6094H39.9197L35.8737 18.9784ZM12.8906 28.3594C12.8906 29.3073 12.1198 30.0781 11.1719 30.0781C10.224 30.0781 9.45312 29.3073 9.45312 28.3594C9.45312 27.4115 10.224 26.6406 11.1719 26.6406C12.1198 26.6406 12.8906 27.4115 12.8906 28.3594ZM18.0469 28.3594C18.0469 22.6729 22.6729 18.0469 28.3594 18.0469C34.0459 18.0469 38.6719 22.6729 38.6719 28.3594C38.6719 34.0459 34.0459 38.6719 28.3594 38.6719C22.6729 38.6719 18.0469 34.0459 18.0469 28.3594ZM42.4617 36.9162C43.2412 36.7529 43.8281 36.0611 43.8281 35.2344V14.6094C43.8281 13.6615 43.0573 12.8906 42.1094 12.8906H6.01562C5.06773 12.8906 4.29688 13.6615 4.29688 14.6094V35.2344C4.29688 36.1823 5.06773 36.9531 6.01562 36.9531H19.9555C22.1263 39.0758 25.0912 40.3906 28.3594 40.3906C30.354 40.3906 32.2326 39.8956 33.8903 39.0328C34.5847 39.8105 35.5601 40.9097 36.6205 42.1094H5.15625C3.73484 42.1094 2.57812 40.9527 2.57812 39.5312V13.75C2.57812 12.3286 3.73484 11.1719 5.15625 11.1719H42.9688C44.3902 11.1719 45.5469 12.3286 45.5469 13.75V39.5312C45.5469 39.5656 45.5357 39.5983 45.534 39.6318L42.4617 36.9162ZM49.8438 7.73438C48.4223 7.73438 47.2656 6.57766 47.2656 5.15625C47.2656 3.73484 48.4223 2.57812 49.8438 2.57812C51.2652 2.57812 52.4219 3.73484 52.4219 5.15625C52.4219 6.57766 51.2652 7.73438 49.8438 7.73438Z" fill="#1B73E8"/>
<path d="M42.0568 43.2817L43.2722 42.0664L44.4267 43.221L43.2114 44.4363L42.0568 43.2817Z" fill="#1B73E8"/>
<path d="M37.1969 38.4199L38.4123 37.2046L39.6276 38.4199L38.4123 39.6353L37.1969 38.4199Z" fill="#1B73E8"/>
<path d="M39.6274 40.8511L40.8428 39.6357L42.0581 40.8511L40.8428 42.0664L39.6274 40.8511Z" fill="#1B73E8"/>
<path d="M7.73438 16.3281H16.3281V18.0469H7.73438V16.3281Z" fill="#1B73E8"/>
<path d="M14.6094 19.7656H16.3281V21.4844H14.6094V19.7656Z" fill="#1B73E8"/>
<path d="M7.73438 19.7656H9.45312V21.4844H7.73438V19.7656Z" fill="#1B73E8"/>
<path d="M11.1719 19.7656H12.8906V21.4844H11.1719V19.7656Z" fill="#1B73E8"/>
</svg>
