<svg width="55" height="49" viewBox="0 0 55 49" fill="none" xmlns="http://www.w3.org/2000/svg">
<path d="M18.9062 15.1992H29.2188V16.6949H18.9062V15.1992Z" fill="#1B73E8"/>
<path d="M30.9375 15.1992H32.6562V16.6949H30.9375V15.1992Z" fill="#1B73E8"/>
<path d="M34.375 15.1992H36.0938V16.6949H34.375V15.1992Z" fill="#1B73E8"/>
<path d="M18.9062 21.1821H29.2188V22.6778H18.9062V21.1821Z" fill="#1B73E8"/>
<path d="M30.9375 21.1821H32.6562V22.6778H30.9375V21.1821Z" fill="#1B73E8"/>
<path d="M34.375 21.1821H36.0938V22.6778H34.375V21.1821Z" fill="#1B73E8"/>
<path d="M18.9062 27.1646H29.2188V28.6602H18.9062V27.1646Z" fill="#1B73E8"/>
<path d="M30.9375 27.1646H32.6562V28.6602H30.9375V27.1646Z" fill="#1B73E8"/>
<path d="M34.375 27.1646H36.0938V28.6602H34.375V27.1646Z" fill="#1B73E8"/>
<path d="M49.8438 32.3993C49.0819 32.4001 48.3418 32.6208 47.7395 33.0268C47.1372 33.4327 46.7066 34.0011 46.5151 34.6428H36.9531V31.6515C37.6366 31.6508 38.2919 31.4142 38.7753 30.9936C39.2586 30.573 39.5305 30.0028 39.5312 29.408V27.1646H44.6875C45.8748 27.1638 47.049 26.949 48.1361 26.5336C49.2232 26.1183 50.1996 25.5115 51.0037 24.7514C51.8078 23.9913 52.4223 23.0944 52.8082 22.1174C53.1942 21.1404 53.3433 20.1044 53.2462 19.0747C53.1491 18.045 52.8078 17.044 52.244 16.1348C51.6801 15.2256 50.9059 14.4279 49.9701 13.7921C49.0343 13.1563 47.9573 12.6961 46.8069 12.4405C45.6565 12.185 44.4578 12.1396 43.2863 12.3073C42.4456 9.54766 40.6693 7.0723 38.1887 5.20377C35.7081 3.33525 32.6382 2.16019 29.3791 1.8317C26.1201 1.50321 22.8228 2.03652 19.9171 3.36214C17.0113 4.68776 14.6317 6.74423 13.0884 9.2636C12.7371 9.23249 12.3843 9.21689 12.0312 9.21687C9.2962 9.21687 6.67318 10.1623 4.73921 11.8452C2.80524 13.5282 1.71875 15.8107 1.71875 18.1907C1.71875 20.5707 2.80524 22.8533 4.73921 24.5362C6.67318 26.2191 9.2962 27.1646 12.0312 27.1646H15.4688V29.408C15.4695 30.0028 15.7414 30.573 16.2247 30.9936C16.7081 31.4142 17.3634 31.6508 18.0469 31.6515V34.6428H8.48493C8.27577 33.9378 7.77833 33.3235 7.08586 32.9148C6.3934 32.5062 5.55344 32.3314 4.72345 32.4231C3.89345 32.5149 3.1304 32.8669 2.57731 33.4132C2.02423 33.9594 1.71909 34.6625 1.71909 35.3906C1.71909 36.1186 2.02423 36.8217 2.57731 37.368C3.1304 37.9143 3.89345 38.2663 4.72345 38.358C5.55344 38.4498 6.3934 38.2749 7.08586 37.8663C7.77833 37.4577 8.27577 36.8433 8.48493 36.1384H18.9062C19.1342 36.1384 19.3528 36.0596 19.5139 35.9194C19.6751 35.7791 19.7656 35.5889 19.7656 35.3906V31.6515H21.4844V37.634H14.6094C14.3815 37.634 14.1629 37.7128 14.0017 37.8531C13.8405 37.9933 13.75 38.1835 13.75 38.3819V40.72C12.9399 40.902 12.2339 41.3349 11.7643 41.9375C11.2948 42.54 11.0938 43.271 11.1993 43.9932C11.3047 44.7155 11.7092 45.3795 12.337 45.8608C12.9648 46.3421 13.7727 46.6076 14.6094 46.6076C15.446 46.6076 16.254 46.3421 16.8818 45.8608C17.5095 45.3795 17.9141 44.7155 18.0195 43.9932C18.1249 43.271 17.924 42.54 17.4544 41.9375C16.9849 41.3349 16.2788 40.902 15.4688 40.72V39.1297H22.3438C22.5717 39.1297 22.7903 39.0509 22.9514 38.9106C23.1126 38.7704 23.2031 38.5802 23.2031 38.3819V31.6515H26.6406V39.2244C25.8305 39.4064 25.1245 39.8392 24.655 40.4418C24.1854 41.0444 23.9845 41.7753 24.0899 42.4976C24.1953 43.2198 24.5998 43.8838 25.2276 44.3651C25.8554 44.8464 26.6633 45.1119 27.5 45.1119C28.3367 45.1119 29.1446 44.8464 29.7724 44.3651C30.4002 43.8838 30.8047 43.2198 30.9101 42.4976C31.0155 41.7753 30.8146 41.0444 30.345 40.4418C29.8755 39.8392 29.1695 39.4064 28.3594 39.2244V31.6515H31.7969V38.3819C31.7969 38.5802 31.8874 38.7704 32.0486 38.9106C32.2097 39.0509 32.4283 39.1297 32.6562 39.1297H39.5312V40.72C38.7212 40.902 38.0152 41.3349 37.5456 41.9375C37.076 42.54 36.8751 43.271 36.9805 43.9932C37.0859 44.7155 37.4905 45.3795 38.1182 45.8608C38.746 46.3421 39.554 46.6076 40.3906 46.6076C41.2273 46.6076 42.0352 46.3421 42.663 45.8608C43.2908 45.3795 43.6953 44.7155 43.8007 43.9932C43.9062 43.271 43.7052 42.54 43.2357 41.9375C42.7661 41.3349 42.0601 40.902 41.25 40.72V38.3819C41.25 38.1835 41.1595 37.9933 40.9983 37.8531C40.8371 37.7128 40.6185 37.634 40.3906 37.634H33.5156V31.6515H35.2344V35.3906C35.2344 35.5889 35.3249 35.7791 35.4861 35.9194C35.6472 36.0596 35.8658 36.1384 36.0938 36.1384H46.5151C46.6758 36.6801 47.0079 37.1717 47.4736 37.5574C47.9393 37.9431 48.52 38.2074 49.1497 38.3203C49.7793 38.4332 50.4328 38.3902 51.0358 38.1961C51.6388 38.0021 52.1672 37.6647 52.5609 37.2225C52.9546 36.7802 53.1979 36.2507 53.2632 35.6941C53.3284 35.1376 53.213 34.5762 52.93 34.0739C52.647 33.5715 52.2078 33.1483 51.6622 32.8523C51.1167 32.5563 50.4867 32.3993 49.8438 32.3993V32.3993ZM5.15625 36.8862C4.81631 36.8862 4.48401 36.7985 4.20136 36.6342C3.91872 36.4698 3.69842 36.2362 3.56833 35.9629C3.43824 35.6896 3.40421 35.3889 3.47053 35.0988C3.53684 34.8087 3.70054 34.5422 3.94091 34.333C4.18128 34.1238 4.48753 33.9814 4.82094 33.9237C5.15434 33.866 5.49993 33.8956 5.81399 34.0088C6.12805 34.122 6.39648 34.3137 6.58534 34.5596C6.7742 34.8056 6.875 35.0948 6.875 35.3906C6.87446 35.7871 6.6932 36.1672 6.37099 36.4476C6.04878 36.728 5.61193 36.8857 5.15625 36.8862V36.8862ZM16.3281 43.6166C16.3281 43.9124 16.2273 44.2016 16.0385 44.4475C15.8496 44.6935 15.5812 44.8852 15.2671 44.9984C14.9531 45.1116 14.6075 45.1412 14.2741 45.0835C13.9407 45.0258 13.6344 44.8833 13.394 44.6742C13.1537 44.465 12.99 44.1985 12.9237 43.9084C12.8573 43.6183 12.8914 43.3175 13.0215 43.0442C13.1515 42.7709 13.3718 42.5374 13.6545 42.373C13.9371 42.2087 14.2694 42.121 14.6094 42.121C15.0651 42.1214 15.5019 42.2792 15.8241 42.5595C16.1463 42.8399 16.3276 43.2201 16.3281 43.6166V43.6166ZM29.2188 42.121C29.2188 42.4168 29.1179 42.7059 28.9291 42.9519C28.7402 43.1978 28.4718 43.3895 28.1577 43.5027C27.8437 43.6159 27.4981 43.6456 27.1647 43.5879C26.8313 43.5301 26.525 43.3877 26.2847 43.1785C26.0443 42.9694 25.8806 42.7029 25.8143 42.4127C25.748 42.1226 25.782 41.8219 25.9121 41.5486C26.0422 41.2753 26.2625 41.0417 26.5451 40.8774C26.8278 40.713 27.1601 40.6253 27.5 40.6253C27.9557 40.6258 28.3925 40.7835 28.7147 41.0639C29.037 41.3443 29.2182 41.7244 29.2188 42.121V42.121ZM42.1094 43.6166C42.1094 43.9124 42.0086 44.2016 41.8197 44.4475C41.6309 44.6935 41.3624 44.8852 41.0484 44.9984C40.7343 45.1116 40.3887 45.1412 40.0553 45.0835C39.7219 45.0258 39.4157 44.8833 39.1753 44.6742C38.9349 44.465 38.7712 44.1985 38.7049 43.9084C38.6386 43.6183 38.6726 43.3175 38.8027 43.0442C38.9328 42.7709 39.1531 42.5374 39.4357 42.373C39.7184 42.2087 40.0507 42.121 40.3906 42.121C40.8463 42.1214 41.2832 42.2792 41.6054 42.5595C41.9276 42.8399 42.1088 43.2201 42.1094 43.6166V43.6166ZM17.1875 17.4429V14.4516C17.1878 14.2533 17.2784 14.0633 17.4395 13.9231C17.6006 13.7829 17.819 13.704 18.0469 13.7038H36.9531C37.181 13.704 37.3994 13.7829 37.5605 13.9231C37.7216 14.0633 37.8122 14.2533 37.8125 14.4516V17.4429C37.8122 17.6412 37.7216 17.8312 37.5605 17.9714C37.3994 18.1116 37.181 18.1905 36.9531 18.1907H18.0469C17.819 18.1905 17.6006 18.1116 17.4395 17.9714C17.2784 17.8312 17.1878 17.6412 17.1875 17.4429V17.4429ZM17.1875 23.4255V20.4342C17.1878 20.2359 17.2784 20.0458 17.4395 19.9056C17.6006 19.7654 17.819 19.6866 18.0469 19.6863H36.9531C37.181 19.6866 37.3994 19.7654 37.5605 19.9056C37.7216 20.0458 37.8122 20.2359 37.8125 20.4342V23.4255C37.8122 23.6237 37.7216 23.8138 37.5605 23.954C37.3994 24.0942 37.181 24.173 36.9531 24.1733H18.0469C17.819 24.173 17.6006 24.0942 17.4395 23.954C17.2784 23.8138 17.1878 23.6237 17.1875 23.4255ZM3.4375 18.1907C3.44009 16.2081 4.34633 14.3073 5.95741 12.9053C7.56849 11.5034 9.75284 10.7148 12.0312 10.7125C12.5026 10.7124 12.9733 10.7457 13.4385 10.812C13.6213 10.8383 13.809 10.8125 13.9736 10.7384C14.1381 10.6642 14.2707 10.5458 14.3516 10.4007C15.6823 8.01336 17.8379 6.04807 20.5163 4.78011C23.1948 3.51214 26.262 3.00501 29.2882 3.32976C32.3144 3.65451 35.1481 4.79486 37.3923 6.59108C39.6365 8.3873 41.1788 10.7494 41.8032 13.3465C41.8271 13.4466 41.8744 13.5414 41.942 13.625C42.0097 13.7086 42.0963 13.7792 42.1966 13.8325C42.2968 13.8858 42.4086 13.9207 42.5249 13.9349C42.6413 13.9492 42.7598 13.9425 42.873 13.9153C43.8183 13.6906 44.8079 13.6443 45.7755 13.7795C46.743 13.9148 47.6661 14.2284 48.483 14.6995C49.2998 15.1706 49.9915 15.7882 50.5117 16.5109C51.0318 17.2336 51.3684 18.0447 51.4989 18.8898C51.6293 19.735 51.5507 20.5946 51.2681 21.4112C50.9856 22.2277 50.5058 22.9822 49.8607 23.6242C49.2157 24.2662 48.4204 24.7807 47.5282 25.1334C46.636 25.486 45.6674 25.6686 44.6875 25.6689H39.3834C39.2708 25.393 39.0973 25.139 38.8726 24.9211C39.2971 24.5105 39.5317 23.9777 39.5312 23.4255V20.4342C39.5317 19.8819 39.2971 19.3491 38.8726 18.9385C39.2971 18.5279 39.5317 17.9951 39.5312 17.4429V14.4516C39.5305 13.8568 39.2586 13.2866 38.7753 12.866C38.2919 12.4454 37.6366 12.2088 36.9531 12.2081H18.0469C17.3634 12.2088 16.7081 12.4454 16.2247 12.866C15.7414 13.2866 15.4695 13.8568 15.4688 14.4516V17.4429C15.4683 17.9951 15.7029 18.5279 16.1274 18.9385C15.7029 19.3491 15.4683 19.8819 15.4688 20.4342V23.4255C15.4683 23.9777 15.7029 24.5105 16.1274 24.9211C15.9027 25.139 15.7292 25.393 15.6166 25.6689H12.0312C9.75284 25.6667 7.56849 24.8781 5.95741 23.4761C4.34633 22.0742 3.44009 20.1734 3.4375 18.1907V18.1907ZM17.1875 29.408V26.4167C17.1878 26.2185 17.2784 26.0284 17.4395 25.8882C17.6006 25.748 17.819 25.6691 18.0469 25.6689H36.9531C37.181 25.6691 37.3994 25.748 37.5605 25.8882C37.7216 26.0284 37.8122 26.2185 37.8125 26.4167V29.408C37.8122 29.6063 37.7216 29.7964 37.5605 29.9366C37.3994 30.0768 37.181 30.1556 36.9531 30.1558H18.0469C17.819 30.1556 17.6006 30.0768 17.4395 29.9366C17.2784 29.7964 17.1878 29.6063 17.1875 29.408ZM49.8438 36.8862C49.5038 36.8862 49.1715 36.7985 48.8889 36.6342C48.6062 36.4698 48.3859 36.2362 48.2558 35.9629C48.1257 35.6896 48.0917 35.3889 48.158 35.0988C48.2243 34.8087 48.388 34.5422 48.6284 34.333C48.8688 34.1238 49.175 33.9814 49.5084 33.9237C49.8418 33.866 50.1874 33.8956 50.5015 34.0088C50.8155 34.122 51.084 34.3137 51.2728 34.5596C51.4617 34.8056 51.5625 35.0948 51.5625 35.3906C51.562 35.7871 51.3807 36.1672 51.0585 36.4476C50.7363 36.728 50.2994 36.8857 49.8438 36.8862V36.8862Z" fill="#1B73E8"/>
</svg>
