<svg width="55" height="55" viewBox="0 0 55 55" fill="none" xmlns="http://www.w3.org/2000/svg">
<path d="M48.125 35.2344H6.875V12.8906C6.87577 12.2071 7.14764 11.5518 7.63096 11.0685C8.11429 10.5851 8.7696 10.3133 9.45312 10.3125H28.3594V8.59375H9.45312C8.31392 8.59503 7.22173 9.04815 6.41619 9.85369C5.61065 10.6592 5.15753 11.7514 5.15625 12.8906V39.5312C5.15753 40.6705 5.61065 41.7626 6.41619 42.5682C7.22173 43.3737 8.31392 43.8268 9.45312 43.8281H20.1811L18.3396 48.125H14.6094C13.9256 48.125 13.2699 48.3966 12.7864 48.8801C12.3029 49.3636 12.0312 50.0194 12.0312 50.7031C12.0312 51.3869 12.3029 52.0426 12.7864 52.5261C13.2699 53.0096 13.9256 53.2812 14.6094 53.2812H40.3906C41.0744 53.2812 41.7301 53.0096 42.2136 52.5261C42.6971 52.0426 42.9688 51.3869 42.9688 50.7031C42.9688 50.0194 42.6971 49.3636 42.2136 48.8801C41.7301 48.3966 41.0744 48.125 40.3906 48.125H36.6604L34.8189 43.8281H45.5469C46.6861 43.8268 47.7783 43.3737 48.5838 42.5682C49.3894 41.7626 49.8425 40.6705 49.8438 39.5312V24.9219H48.125V35.2344ZM41.25 50.7031C41.2497 50.931 41.1591 51.1494 40.998 51.3105C40.8369 51.4716 40.6185 51.5622 40.3906 51.5625H14.6094C14.3815 51.5625 14.1629 51.472 14.0017 51.3108C13.8405 51.1496 13.75 50.931 13.75 50.7031C13.75 50.4752 13.8405 50.2566 14.0017 50.0955C14.1629 49.9343 14.3815 49.8438 14.6094 49.8438H40.3906C40.6185 49.844 40.8369 49.9346 40.998 50.0957C41.1591 50.2568 41.2497 50.4753 41.25 50.7031ZM34.7905 48.125H20.2095L22.051 43.8281H32.949L34.7905 48.125ZM45.5469 42.1094H9.45312C8.7696 42.1086 8.11429 41.8367 7.63096 41.3534C7.14764 40.8701 6.87577 40.2148 6.875 39.5312V36.9531H48.125V39.5312C48.1242 40.2148 47.8524 40.8701 47.369 41.3534C46.8857 41.8367 46.2304 42.1086 45.5469 42.1094Z" fill="#1B73E8"/>
<path d="M26.6406 38.6719H28.3594V40.3906H26.6406V38.6719Z" fill="#1B73E8"/>
<path d="M52.7507 11.7284C52.8854 11.6129 52.9811 11.4585 53.0245 11.2864C53.068 11.1143 53.0571 10.933 52.9934 10.7674L51.9652 8.09432C51.9015 7.92871 51.7881 7.78688 51.6406 7.68831C51.493 7.58973 51.3186 7.53925 51.1412 7.54378L48.8017 7.6034L47.7738 6.52155L47.9531 4.18824C47.9667 4.0113 47.9252 3.83449 47.8342 3.6821C47.7433 3.52971 47.6074 3.4092 47.4452 3.33714L44.8278 2.17398C44.6656 2.1019 44.4851 2.08179 44.3111 2.11641C44.137 2.15103 43.978 2.23869 43.8557 2.36734L42.2438 4.06374L40.7518 4.02572L39.2284 2.24906C39.1129 2.1144 38.9585 2.01879 38.7865 1.97536C38.6145 1.93193 38.4332 1.94281 38.2676 2.00651L35.5944 3.03464C35.4288 3.09835 35.287 3.21176 35.1884 3.35931C35.0899 3.50685 35.0394 3.68129 35.0439 3.85867L35.1035 6.198L34.0217 7.22613L31.6884 7.04674C31.5114 7.03315 31.3346 7.07467 31.1822 7.16558C31.0299 7.2565 30.9093 7.39237 30.8373 7.55452L29.6741 10.1721C29.6021 10.3342 29.582 10.5147 29.6166 10.6887C29.6512 10.8628 29.7388 11.0218 29.8675 11.144L31.5639 12.7561L31.5257 14.2481L29.7493 15.7713C29.6146 15.8869 29.5189 16.0412 29.4755 16.2133C29.432 16.3854 29.4429 16.5667 29.5066 16.7323L30.5348 19.4054C30.599 19.5707 30.7125 19.7122 30.86 19.8107C31.0074 19.9091 31.1815 19.9599 31.3588 19.9559L33.6982 19.8963L34.7262 20.9782L34.5469 23.3115C34.5333 23.4884 34.5748 23.6652 34.6658 23.8176C34.7567 23.97 34.8926 24.0905 35.0548 24.1626L37.6719 25.3258C37.834 25.3978 38.0145 25.4179 38.1886 25.3833C38.3626 25.3487 38.5217 25.261 38.6439 25.1324L40.2559 23.436L41.7479 23.474L43.2712 25.2507C43.3868 25.3853 43.5411 25.4809 43.7132 25.5244C43.8852 25.5678 44.0664 25.5569 44.232 25.4932L46.9052 24.4651C47.0708 24.4014 47.2127 24.288 47.3112 24.1404C47.4098 23.9929 47.4603 23.8184 47.4558 23.6411L47.3961 21.3017L48.478 20.2736L50.8116 20.453C50.9885 20.4666 51.1653 20.4251 51.3177 20.3341C51.4701 20.2432 51.5906 20.1074 51.6627 19.9452L52.8259 17.3281C52.8979 17.1659 52.918 16.9855 52.8834 16.8114C52.8488 16.6374 52.7611 16.4784 52.6325 16.3561L50.9361 14.7441L50.9742 13.2521L52.7507 11.7284ZM49.4753 15.7264L51.0089 17.1839L50.3379 18.6926L48.2285 18.5308C48.1086 18.5215 47.9881 18.5375 47.8748 18.5778C47.7615 18.6181 47.6579 18.6818 47.5708 18.7647L45.9352 20.3188C45.8481 20.4016 45.7793 20.5018 45.7333 20.6128C45.6873 20.7238 45.6651 20.8432 45.668 20.9634L45.7217 23.0783L44.1807 23.671L42.8035 22.065C42.7252 21.9737 42.6287 21.8999 42.5201 21.8483C42.4115 21.7967 42.2933 21.7684 42.1731 21.7654L39.9172 21.7078C39.9099 21.7078 39.9026 21.7078 39.8957 21.7078C39.7792 21.7078 39.6638 21.7315 39.5567 21.7774C39.4496 21.8234 39.353 21.8907 39.2727 21.9752L37.8153 23.5088L36.3073 22.8378L36.4691 20.7285C36.4783 20.6086 36.4622 20.4881 36.4219 20.3748C36.3817 20.2615 36.318 20.158 36.2352 20.0708L34.681 18.4351C34.5985 18.3477 34.4984 18.2787 34.3873 18.2327C34.2762 18.1867 34.1567 18.1646 34.0365 18.168L31.9216 18.2217L31.3288 16.6807L32.9348 15.3036C33.0261 15.2253 33.0999 15.1288 33.1515 15.0202C33.2032 14.9116 33.2314 14.7934 33.2345 14.6732L33.2922 12.4173C33.2952 12.2972 33.273 12.1777 33.227 12.0667C33.1809 11.9557 33.1121 11.8555 33.025 11.7728L31.491 10.3159L32.1621 8.80717L34.2714 8.96895C34.3913 8.97801 34.5118 8.96188 34.6251 8.92158C34.7384 8.88129 34.8419 8.81772 34.9292 8.73498L36.5648 7.18091C36.6519 7.09811 36.7206 6.99797 36.7667 6.88695C36.8127 6.77594 36.8349 6.65652 36.8319 6.53638L36.7782 4.42146L38.3193 3.8287L39.6965 5.43477C39.7747 5.52588 39.8711 5.59959 39.9796 5.65113C40.0881 5.70268 40.2061 5.73093 40.3262 5.73405L42.582 5.79162C42.7023 5.7954 42.8219 5.77355 42.933 5.7275C43.0442 5.68146 43.1442 5.61228 43.2266 5.52457L44.6839 3.99091L46.1927 4.66198L46.0309 6.7712C46.0217 6.8911 46.0378 7.01159 46.078 7.12489C46.1183 7.23819 46.1819 7.34177 46.2648 7.42895L47.8189 9.06466C47.9016 9.152 48.0017 9.22092 48.1127 9.26694C48.2238 9.31295 48.3433 9.33503 48.4635 9.33171L50.5784 9.278L51.1712 10.8191L49.5655 12.1955C49.4742 12.2737 49.4004 12.3703 49.3488 12.4789C49.2971 12.5875 49.2689 12.7057 49.2658 12.8259L49.2081 15.0818C49.2051 15.2019 49.2273 15.3214 49.2733 15.4324C49.3194 15.5435 49.3881 15.6436 49.4753 15.7264Z" fill="#1B73E8"/>
<path d="M39.0542 8.04092C37.9251 8.47521 36.9501 9.23458 36.2525 10.223C35.555 11.2114 35.1662 12.3845 35.1353 13.5938C35.1045 14.8032 35.4329 15.9946 36.0791 17.0173C36.7254 18.04 37.6603 18.8481 38.7658 19.3394C39.8713 19.8308 41.0977 19.9832 42.2899 19.7776C43.482 19.5719 44.5864 19.0174 45.4634 18.184C46.3404 17.3507 46.9506 16.2761 47.2168 15.0959C47.483 13.9158 47.3933 12.6833 46.9591 11.5542C46.3752 10.0412 45.215 8.82167 43.7331 8.16305C42.2511 7.50442 40.5685 7.4605 39.0542 8.04092ZM42.8291 17.8548C42.0173 18.1671 41.131 18.2316 40.2825 18.0403C39.4339 17.8489 38.6612 17.4102 38.062 16.7797C37.4627 16.1492 37.0639 15.3551 36.916 14.4979C36.7681 13.6407 36.8777 12.7589 37.2309 11.964C37.5841 11.1691 38.1651 10.4968 38.9004 10.0321C39.6358 9.5674 40.4924 9.33118 41.3619 9.35332C42.2315 9.37546 43.075 9.65496 43.7857 10.1565C44.4965 10.658 45.0425 11.359 45.3548 12.1709C45.7723 13.2596 45.7408 14.4695 45.2673 15.5351C44.7938 16.6006 43.9169 17.4349 42.8291 17.8548Z" fill="#1B73E8"/>
<path d="M13.4983 18.2983L11.5278 16.3279L13.4983 14.3575L12.2829 13.1421L9.70482 15.7202C9.62501 15.8 9.5617 15.8948 9.51851 15.999C9.47532 16.1033 9.45309 16.215 9.45309 16.3279C9.45309 16.4408 9.47532 16.5525 9.51851 16.6568C9.5617 16.761 9.62501 16.8558 9.70482 16.9356L12.2829 19.5137L13.4983 18.2983Z" fill="#1B73E8"/>
<path d="M20.3733 19.5137L22.9514 16.9356C23.0312 16.8558 23.0945 16.761 23.1377 16.6568C23.1809 16.5525 23.2031 16.4408 23.2031 16.3279C23.2031 16.215 23.1809 16.1033 23.1377 15.999C23.0945 15.8948 23.0312 15.8 22.9514 15.7202L20.3733 13.1421L19.1579 14.3575L21.1285 16.3279L19.1579 18.2983L20.3733 19.5137Z" fill="#1B73E8"/>
<path d="M14.6388 19.5659L16.3608 12.6919L18.028 13.1096L16.306 19.9836L14.6388 19.5659Z" fill="#1B73E8"/>
<path d="M9.45312 21.4844H11.1719V23.2031H9.45312V21.4844Z" fill="#1B73E8"/>
<path d="M12.8906 21.4844H29.2188V23.2031H12.8906V21.4844Z" fill="#1B73E8"/>
<path d="M9.45312 24.9219H11.1719V26.6406H9.45312V24.9219Z" fill="#1B73E8"/>
<path d="M12.8906 24.9219H31.7969V26.6406H12.8906V24.9219Z" fill="#1B73E8"/>
<path d="M9.45312 28.3594H11.1719V30.0781H9.45312V28.3594Z" fill="#1B73E8"/>
<path d="M12.8906 28.3594H34.375V30.0781H12.8906V28.3594Z" fill="#1B73E8"/>
<path d="M9.45312 31.7969H11.1719V33.5156H9.45312V31.7969Z" fill="#1B73E8"/>
<path d="M12.8906 31.7969H38.6719V33.5156H12.8906V31.7969Z" fill="#1B73E8"/>
<path d="M40.3906 31.7969H42.1094V33.5156H40.3906V31.7969Z" fill="#1B73E8"/>
<path d="M39.5312 28.3594H41.25V30.0781H39.5312V28.3594Z" fill="#1B73E8"/>
<path d="M36.0938 28.3594H37.8125V30.0781H36.0938V28.3594Z" fill="#1B73E8"/>
<path d="M43.8281 31.7969H45.5469V33.5156H43.8281V31.7969Z" fill="#1B73E8"/>
</svg>
