<svg width="55" height="48" viewBox="0 0 55 48" fill="none" xmlns="http://www.w3.org/2000/svg">
<path d="M40.1388 4.70593C39.9777 4.56567 39.7592 4.48686 39.5312 4.48682H15.4688C14.5159 4.48673 13.5901 4.76224 12.8368 5.27002C12.0836 5.7778 11.5457 6.48904 11.3077 7.29189L12.9714 7.6658C13.1142 7.18393 13.437 6.75705 13.8891 6.45231C14.3412 6.14758 14.8969 5.98229 15.4688 5.98246H38.6719V9.72156C38.6719 10.3166 38.9435 10.8872 39.427 11.3079C39.9105 11.7287 40.5662 11.965 41.25 11.965H45.5469V42.6257C45.5469 43.2207 45.2753 43.7913 44.7918 44.212C44.3083 44.6327 43.6525 44.8691 42.9688 44.8691H15.4688C14.785 44.8691 14.1292 44.6327 13.6457 44.212C13.1622 43.7913 12.8906 43.2207 12.8906 42.6257V25.4258H11.1719V42.6257C11.1732 43.617 11.6264 44.5673 12.4319 45.2683C13.2374 45.9692 14.3296 46.3636 15.4688 46.3648H42.9688C44.1079 46.3636 45.2001 45.9692 46.0056 45.2683C46.8111 44.5673 47.2643 43.617 47.2656 42.6257V11.2172C47.2656 11.0189 47.175 10.8287 47.0138 10.6885L40.1388 4.70593ZM40.3906 9.72156V7.03987L44.3317 10.4694H41.25C41.0221 10.4694 40.8035 10.3906 40.6423 10.2503C40.4812 10.1101 40.3906 9.91989 40.3906 9.72156Z" fill="#1B73E8"/>
<path d="M46.4063 1.49561H18.9063C17.8594 1.49546 16.8486 1.82786 16.0634 2.43038L17.2021 3.55211C17.6723 3.19024 18.2785 2.99073 18.9063 2.99125H46.4063C47.09 2.99125 47.7458 3.22761 48.2293 3.64834C48.7128 4.06907 48.9844 4.6397 48.9844 5.23471V39.6344C48.985 40.1807 48.7557 40.7082 48.3399 41.1174L49.6289 42.1082C50.3213 41.425 50.7033 40.5454 50.7031 39.6344V5.23471C50.7018 4.2434 50.2486 3.29303 49.4431 2.59207C48.6376 1.89111 47.5454 1.49679 46.4063 1.49561V1.49561Z" fill="#1B73E8"/>
<path d="M13.75 20.9392V20.1914C14.4338 20.1914 15.0895 19.955 15.573 19.5343C16.0565 19.1135 16.3281 18.5429 16.3281 17.9479C16.3281 17.3529 16.0565 16.7823 15.573 16.3615C15.0895 15.9408 14.4338 15.7044 13.75 15.7044H12.0312C11.8033 15.7044 11.5847 15.6256 11.4236 15.4854C11.2624 15.3452 11.1719 15.1549 11.1719 14.9566C11.1719 14.7583 11.2624 14.5681 11.4236 14.4278C11.5847 14.2876 11.8033 14.2088 12.0312 14.2088H13.75C13.9779 14.2088 14.1965 14.2876 14.3577 14.4278C14.5188 14.5681 14.6094 14.7583 14.6094 14.9566H16.3281C16.3281 14.3616 16.0565 13.791 15.573 13.3702C15.0895 12.9495 14.4338 12.7132 13.75 12.7132V11.9653H12.0312V12.7132C11.3475 12.7132 10.6917 12.9495 10.2082 13.3702C9.72475 13.791 9.45313 14.3616 9.45313 14.9566C9.45313 15.5516 9.72475 16.1222 10.2082 16.543C10.6917 16.9637 11.3475 17.2001 12.0312 17.2001H13.75C13.9779 17.2001 14.1965 17.2789 14.3577 17.4191C14.5188 17.5593 14.6094 17.7496 14.6094 17.9479C14.6094 18.1462 14.5188 18.3364 14.3577 18.4767C14.1965 18.6169 13.9779 18.6957 13.75 18.6957H12.0312C11.8033 18.6957 11.5847 18.6169 11.4236 18.4767C11.2624 18.3364 11.1719 18.1462 11.1719 17.9479H9.45313C9.45312 18.5429 9.72475 19.1135 10.2082 19.5343C10.6917 19.955 11.3475 20.1914 12.0312 20.1914V20.9392H13.75Z" fill="#1B73E8"/>
<path d="M21.4844 16.4518C21.4844 14.9728 20.9804 13.527 20.0361 12.2972C19.0918 11.0674 17.7496 10.1089 16.1793 9.54288C14.609 8.97687 12.8811 8.82878 11.2141 9.11733C9.54705 9.40588 8.01579 10.1181 6.81393 11.164C5.61207 12.2098 4.7936 13.5423 4.46201 14.9929C4.13041 16.4435 4.3006 17.9472 4.95104 19.3136C5.60148 20.6801 6.70296 21.848 8.1162 22.6697C9.52943 23.4915 11.1909 23.93 12.8906 23.93C15.1691 23.9279 17.3535 23.1393 18.9646 21.7373C20.5757 20.3354 21.4819 18.4345 21.4844 16.4518V16.4518ZM6.01563 16.4518C6.01563 15.2686 6.41884 14.1119 7.17428 13.1281C7.92971 12.1443 9.00344 11.3775 10.2597 10.9247C11.5159 10.4719 12.8983 10.3534 14.2319 10.5842C15.5655 10.8151 16.7905 11.3849 17.752 12.2215C18.7135 13.0582 19.3683 14.1242 19.6335 15.2847C19.8988 16.4452 19.7627 17.6481 19.2423 18.7413C18.7219 19.8344 17.8408 20.7688 16.7102 21.4262C15.5796 22.0835 14.2504 22.4344 12.8906 22.4344C11.0679 22.4326 9.3204 21.8017 8.03153 20.6802C6.74266 19.5586 6.01768 18.038 6.01563 16.4518V16.4518Z" fill="#1B73E8"/>
<path d="M24.0625 11.9653H34.375V13.461H24.0625V11.9653Z" fill="#1B73E8"/>
<path d="M24.0625 8.97363H25.7812V10.4693H24.0625V8.97363Z" fill="#1B73E8"/>
<path d="M27.5 8.97363H34.375V10.4693H27.5V8.97363Z" fill="#1B73E8"/>
<path d="M20.625 23.1823C20.3971 23.1823 20.1785 23.2611 20.0173 23.4013C19.8562 23.5415 19.7656 23.7318 19.7656 23.9301V27.6692H18.0469V29.1648H40.3906V27.6692H38.6719V17.9475C38.6719 17.7492 38.5813 17.559 38.4202 17.4187C38.259 17.2785 38.0404 17.1997 37.8125 17.1997H34.375C34.1471 17.1997 33.9285 17.2785 33.7673 17.4187C33.6062 17.559 33.5156 17.7492 33.5156 17.9475V27.6692H31.7969V20.9388C31.7969 20.7405 31.7063 20.5503 31.5452 20.41C31.384 20.2698 31.1654 20.191 30.9375 20.191H27.5C27.2721 20.191 27.0535 20.2698 26.8923 20.41C26.7312 20.5503 26.6406 20.7405 26.6406 20.9388V27.6692H24.9219V23.9301C24.9219 23.7318 24.8313 23.5415 24.6702 23.4013C24.509 23.2611 24.2904 23.1823 24.0625 23.1823H20.625ZM35.2344 18.6953H36.9531V27.6692H35.2344V18.6953ZM28.3594 21.6866H30.0781V27.6692H28.3594V21.6866ZM21.4844 27.6692V24.6779H23.2031V27.6692H21.4844Z" fill="#1B73E8"/>
<path d="M18.9062 32.1562C18.6783 32.1562 18.4597 32.235 18.2986 32.3753C18.1374 32.5155 18.0469 32.7057 18.0469 32.9041V40.3823C18.0469 40.5806 18.1374 40.7708 18.2986 40.9111C18.4597 41.0513 18.6783 41.1301 18.9062 41.1301H27.5C27.7279 41.1301 27.9465 41.0513 28.1077 40.9111C28.2688 40.7708 28.3594 40.5806 28.3594 40.3823V32.9041C28.3594 32.7057 28.2688 32.5155 28.1077 32.3753C27.9465 32.235 27.7279 32.1562 27.5 32.1562H18.9062ZM26.6406 39.6345H19.7656V33.6519H26.6406V39.6345Z" fill="#1B73E8"/>
<path d="M31.7969 32.1562H42.1094V33.6519H31.7969V32.1562Z" fill="#1B73E8"/>
<path d="M31.7969 38.1387H42.1094V39.6343H31.7969V38.1387Z" fill="#1B73E8"/>
<path d="M31.7969 35.1475H42.1094V36.6431H31.7969V35.1475Z" fill="#1B73E8"/>
</svg>
