<svg width="55" height="49" viewBox="0 0 55 49" fill="none" xmlns="http://www.w3.org/2000/svg">
<g clip-path="url(#clip0_87_1126)">
<path d="M45.416 15.4305H41.4167V11.7227C41.4167 9.59795 40.498 7.57388 38.8299 6.02355C38.5198 5.73527 37.9998 5.7205 37.6688 5.99037C37.3376 6.26024 37.3205 6.71258 37.6306 7.00067C39.0126 8.28515 39.7738 9.96214 39.7738 11.7227V15.4305H23.0577C17.7731 15.4305 13.4737 19.1718 13.4737 23.7704V26.3278H12.187C11.6751 26.3278 11.1938 26.5013 10.8317 26.8163L6.47163 30.6104V26.7937C6.47163 26.209 6.11187 25.6595 5.53255 25.3598C3.13339 24.1186 1.64291 21.8416 1.64291 19.4177V11.7227C1.64291 7.91236 5.20523 4.81246 9.58397 4.81246H31.8328C32.8591 4.81246 33.8573 4.98006 34.7999 5.31079C35.2206 5.4582 35.6993 5.28115 35.8689 4.9151C36.0385 4.54894 35.835 4.13241 35.4142 3.98481C34.2756 3.58528 33.0706 3.38281 31.8328 3.38281H9.58397C4.29935 3.38281 0 7.12406 0 11.7227V19.4177C0 22.3433 1.79824 25.0911 4.69294 26.5887C4.77673 26.6321 4.82872 26.7106 4.82872 26.7938V30.9556C4.82872 31.4779 5.18697 31.9444 5.74148 32.1444C6.11155 32.2992 6.86716 32.2768 7.35292 31.8655L11.9933 27.8274C12.0451 27.7823 12.1139 27.7575 12.187 27.7575H13.4737V31.4653C13.4737 32.591 13.7272 33.6833 14.2272 34.7119C14.4039 35.0754 14.8859 35.2453 15.3038 35.0918C15.7216 34.938 15.917 34.5186 15.7404 34.155C15.3266 33.3036 15.1167 32.3987 15.1167 31.4654V23.7705C15.1167 19.9601 18.6791 16.8602 23.0578 16.8602H45.416C49.7948 16.8602 53.3571 19.9601 53.3571 23.7705V31.4654C53.3571 33.8988 51.9272 36.1075 49.532 37.3738C48.9675 37.6722 48.6168 38.2169 48.6168 38.7952V43.4575L43.3383 38.8641C42.9763 38.5491 42.4949 38.3756 41.9829 38.3756H23.0577C21.0649 38.3756 19.1593 37.7306 17.6918 36.5595C17.3575 36.2928 16.8379 36.3122 16.5312 36.6031C16.2245 36.8941 16.2469 37.3463 16.5813 37.6132C18.3526 39.0268 20.6525 39.8053 23.0576 39.8053H41.9827C42.0548 39.8053 42.1254 39.8307 42.1763 39.8751L47.7353 44.7125C48.1645 44.9996 48.5841 45.2215 49.3466 44.9913C49.9011 44.7914 50.2594 44.3248 50.2594 43.8026V38.7951C50.2594 38.7129 50.3075 38.6364 50.3848 38.5955C53.2748 37.0678 55 34.4024 55 31.4653V23.7704C55 19.1718 50.7007 15.4305 45.416 15.4305V15.4305Z" fill="#1B73E8"/>
<path d="M31.9183 32.4783C31.4366 31.886 30.5591 31.4889 29.5582 31.4889C28.0407 31.4889 26.8062 32.4017 26.8062 33.5238C26.8062 34.6457 28.0408 35.5585 29.5582 35.5585C30.8898 35.5585 32.0032 34.8556 32.2562 33.9253C33.4679 33.4812 34.4218 32.5963 34.8358 31.4767C36.0355 31.239 36.9339 30.3038 36.9339 29.1888V26.6112C36.9339 25.5348 36.0966 24.626 34.9593 24.3504C34.6916 22.9147 33.8808 21.5973 32.6378 20.6017C31.2508 19.4907 29.4483 18.8789 27.5622 18.8789C23.8507 18.8789 20.7463 21.2053 20.1644 24.3505C19.0274 24.6263 18.1905 25.535 18.1905 26.6111V29.1887C18.1905 30.4828 19.4004 31.5357 20.8875 31.5357C22.3747 31.5357 23.5846 30.4828 23.5846 29.1887V26.6111C23.5846 25.602 22.8488 24.7397 21.8197 24.4088C22.3523 22.0405 24.7314 20.3086 27.5622 20.3086C30.3571 20.3086 32.7661 22.0708 33.3025 24.4095C32.2745 24.7409 31.5398 25.6027 31.5398 26.6111V29.1887C31.5398 30.1426 32.1974 30.9648 33.1387 31.3315C32.8775 31.8198 32.448 32.2187 31.9183 32.4783V32.4783ZM29.5582 34.1289C28.9045 34.1289 28.4491 33.8101 28.4491 33.5238C28.4491 33.2376 28.9045 32.9187 29.5582 32.9187C30.2119 32.9187 30.6674 33.2376 30.6674 33.5238C30.6674 33.8101 30.2118 34.1289 29.5582 34.1289ZM21.9417 29.1889C21.9417 29.6947 21.4688 30.1062 20.8875 30.1062C20.3063 30.1062 19.8334 29.6947 19.8334 29.1889V26.6113C19.8334 26.1055 20.3063 25.694 20.8875 25.694C21.4688 25.694 21.9417 26.1055 21.9417 26.6113V29.1889ZM33.1827 26.6113C33.1827 26.1055 33.6556 25.694 34.2369 25.694C34.8181 25.694 35.291 26.1055 35.291 26.6113V29.1889C35.291 29.6947 34.8181 30.1062 34.2369 30.1062C33.6556 30.1062 33.1827 29.6947 33.1827 29.1889V26.6113Z" fill="#1B73E8"/>
<path d="M39.0685 22.9301H45.6117C46.0653 22.9301 46.4331 22.6102 46.4331 22.2153C46.4331 21.8205 46.0653 21.5005 45.6117 21.5005H39.0685C38.6148 21.5005 38.247 21.8205 38.247 22.2153C38.247 22.6102 38.6148 22.9301 39.0685 22.9301Z" fill="#1B73E8"/>
<path d="M39.0685 26.1303H44.1138C44.5674 26.1303 44.9352 25.8104 44.9352 25.4155C44.9352 25.0207 44.5674 24.7007 44.1138 24.7007H39.0685C38.6148 24.7007 38.247 25.0207 38.247 25.4155C38.247 25.8104 38.6148 26.1303 39.0685 26.1303Z" fill="#1B73E8"/>
<path d="M8.08167 13.7985C8.75806 13.7985 9.30639 13.3213 9.30639 12.7327C9.30639 12.1441 8.75806 11.667 8.08167 11.667C7.40528 11.667 6.85695 12.1441 6.85695 12.7327C6.85695 13.3213 7.40528 13.7985 8.08167 13.7985Z" fill="#1B73E8"/>
<path d="M11.7909 13.7985C12.4673 13.7985 13.0157 13.3213 13.0157 12.7327C13.0157 12.1441 12.4673 11.667 11.7909 11.667C11.1146 11.667 10.5662 12.1441 10.5662 12.7327C10.5662 13.3213 11.1146 13.7985 11.7909 13.7985Z" fill="#1B73E8"/>
<path d="M15.4784 13.7985C16.1548 13.7985 16.7031 13.3213 16.7031 12.7327C16.7031 12.1441 16.1548 11.667 15.4784 11.667C14.802 11.667 14.2537 12.1441 14.2537 12.7327C14.2537 13.3213 14.802 13.7985 15.4784 13.7985Z" fill="#1B73E8"/>
</g>
<defs>
<clipPath id="clip0_87_1126">
<rect width="55" height="47.8605" fill="white" transform="translate(0 0.304688)"/>
</clipPath>
</defs>
</svg>
