<svg width="55" height="55" viewBox="0 0 55 55" fill="none" xmlns="http://www.w3.org/2000/svg">
<path d="M35.0864 14.2941C36.5673 14.2941 37.772 13.0893 37.772 11.6085C37.772 10.1277 36.5673 8.92285 35.0864 8.92285C33.6056 8.92285 32.4009 10.1277 32.4009 11.6085C32.4009 12.2133 32.602 12.7719 32.9407 13.2213L28.5282 19.3875C28.2649 19.301 27.984 19.2535 27.6921 19.2535C26.9864 19.2535 26.3438 19.5275 25.8641 19.9742L22.923 18.3053C22.9622 18.1231 22.9832 17.9343 22.9832 17.7406C22.9832 16.2598 21.7785 15.055 20.2977 15.055C18.8169 15.055 17.6121 16.2598 17.6121 17.7406C17.6121 17.9343 17.6332 18.1231 17.6724 18.3053L14.7313 19.9742C14.2515 19.5275 13.6089 19.2536 12.9033 19.2536C11.4225 19.2536 10.2177 20.4585 10.2177 21.9393C10.2177 23.4201 11.4225 24.6249 12.9033 24.6249C14.3841 24.6249 15.5888 23.4201 15.5888 21.9393C15.5888 21.7456 15.5678 21.5567 15.5286 21.3746L18.4697 19.7056C18.9494 20.1523 19.592 20.4263 20.2977 20.4263C21.0033 20.4263 21.6458 20.1523 22.1257 19.7058L25.0668 21.3747C25.0276 21.5568 25.0065 21.7457 25.0065 21.9394C25.0065 23.4202 26.2112 24.625 27.6921 24.625C29.173 24.625 30.3777 23.4202 30.3777 21.9394C30.3777 21.3345 30.1765 20.7758 29.8378 20.3263L34.2503 14.1602C34.5135 14.2466 34.7945 14.2941 35.0864 14.2941ZM35.0864 10.5342C35.6788 10.5342 36.1607 11.0161 36.1607 11.6085C36.1607 12.2008 35.6788 12.6827 35.0864 12.6827C34.4941 12.6827 34.0122 12.2008 34.0122 11.6085C34.0121 11.0161 34.494 10.5342 35.0864 10.5342ZM12.903 23.0134C12.3106 23.0134 11.8287 22.5315 11.8287 21.9391C11.8287 21.3466 12.3106 20.8647 12.903 20.8647C13.4953 20.8647 13.9772 21.3466 13.9772 21.9391C13.9772 22.5315 13.4953 23.0134 12.903 23.0134ZM20.2975 18.8148C19.7051 18.8148 19.2232 18.3329 19.2232 17.7405C19.2232 17.1481 19.7051 16.6663 20.2975 16.6663C20.8898 16.6663 21.3717 17.1481 21.3717 17.7405C21.3718 18.3329 20.8898 18.8148 20.2975 18.8148ZM27.692 23.0134C27.0996 23.0134 26.6177 22.5315 26.6177 21.9391C26.6177 21.3466 27.0996 20.8647 27.692 20.8647C28.2844 20.8647 28.7663 21.3466 28.7663 21.9391C28.7663 22.5315 28.2843 23.0134 27.692 23.0134Z" fill="#1B73E8"/>
<path d="M44.9879 40.4945H39.3497H8.63973H2.27895C1.91082 40.4945 1.61133 40.195 1.61133 39.8269V6.58853C1.61133 6.22039 1.91082 5.9209 2.27895 5.9209H6.07696C6.5219 5.9209 6.88263 5.56028 6.88263 5.11523C6.88263 4.67019 6.5219 4.30957 6.07696 4.30957H2.27895C1.02233 4.30957 0 5.3319 0 6.58853V39.8269C0 41.0835 1.02233 42.1059 2.27895 42.1059H7.83406V43.879C7.83406 44.889 8.65584 45.7108 9.66593 45.7108H17.7305L13.9342 53.1227C13.7314 53.5188 13.8879 54.0042 14.284 54.2071C14.4015 54.2674 14.527 54.2959 14.6506 54.2959C14.9433 54.2959 15.2258 54.1358 15.3683 53.8573L19.5409 45.7108H28.4485L32.6211 53.8573C32.7638 54.1358 33.0461 54.2959 33.3388 54.2959C33.4625 54.2959 33.5879 54.2672 33.7054 54.2071C34.1015 54.0042 34.2581 53.5188 34.0552 53.1227L30.2589 45.7108H38.3235C39.3336 45.7108 40.1554 44.8892 40.1554 43.879V42.1059H44.9879C45.4328 42.1059 45.7935 41.7452 45.7935 41.3002C45.7935 40.8551 45.4328 40.4945 44.9879 40.4945ZM38.544 43.879C38.544 44.0006 38.4451 44.0995 38.3235 44.0995H9.66593C9.54433 44.0995 9.44539 44.0006 9.44539 43.879V42.1059H38.544V43.879Z" fill="#1B73E8"/>
<path d="M9.29962 5.92078H20.3288H27.6605H45.7104C46.0785 5.92078 46.378 6.22027 46.378 6.58841V14.2488C46.378 14.6938 46.7387 15.0544 47.1837 15.0544C47.6286 15.0544 47.9893 14.6938 47.9893 14.2488V6.58841C47.9893 5.33179 46.967 4.30945 45.7104 4.30945H28.4663V2.72584C28.4663 1.61134 27.5595 0.70459 26.4449 0.70459H21.5445C20.43 0.70459 19.5232 1.61134 19.5232 2.72584V4.30945H9.29962C8.85468 4.30945 8.49396 4.67007 8.49396 5.11512C8.49396 5.56017 8.85468 5.92078 9.29962 5.92078ZM21.1345 2.72584C21.1345 2.49982 21.3184 2.31592 21.5445 2.31592H26.4449C26.6709 2.31592 26.8549 2.49982 26.8549 2.72584V4.30945H21.1346V2.72584H21.1345Z" fill="#1B73E8"/>
<path d="M11.2688 28.7437C10.8238 28.7437 10.4631 29.1043 10.4631 29.5493V36.6684C10.4631 37.1134 10.8238 37.474 11.2688 37.474H14.5373C14.9822 37.474 15.343 37.1134 15.343 36.6684V29.5493C15.343 29.1043 14.9822 28.7437 14.5373 28.7437H11.2688ZM13.7316 35.8628H12.0744V30.3551H13.7316V35.8628Z" fill="#1B73E8"/>
<path d="M18.6631 24.6265C18.2182 24.6265 17.8575 24.9871 17.8575 25.4321V36.6686C17.8575 37.1136 18.2182 37.4742 18.6631 37.4742H21.9317C22.3766 37.4742 22.7373 37.1136 22.7373 36.6686V25.4321C22.7373 24.9871 22.3766 24.6265 21.9317 24.6265H18.6631ZM21.1261 35.8629H19.4689V26.2378H21.1261V35.8629Z" fill="#1B73E8"/>
<path d="M26.0576 28.7437C25.6127 28.7437 25.252 29.1043 25.252 29.5493V36.6684C25.252 37.1134 25.6127 37.474 26.0576 37.474H29.3262C29.7711 37.474 30.1318 37.1134 30.1318 36.6684V29.5493C30.1318 29.1043 29.7711 28.7437 29.3262 28.7437H26.0576ZM28.5205 35.8628H26.8633V30.3551H28.5205V35.8628Z" fill="#1B73E8"/>
<path d="M33.4521 33.4976C33.0072 33.4976 32.6465 33.8582 32.6465 34.3032V36.6683C32.6465 37.1134 33.0072 37.474 33.4521 37.474H36.7207C37.1656 37.474 37.5263 37.1134 37.5263 36.6683C37.5263 36.2233 37.1656 35.8627 36.7207 35.8627H34.2578V34.3032C34.2578 33.8582 33.8971 33.4976 33.4521 33.4976Z" fill="#1B73E8"/>
<path d="M54.5891 41.2524L49.9671 33.2466C51.1381 31.9985 51.9908 30.4734 52.4463 28.7736C53.1743 26.0568 52.8006 23.219 51.3943 20.7831C48.4911 15.7544 42.0382 14.0256 37.0097 16.9287C31.9812 19.8318 30.2523 26.2847 33.1554 31.3133C34.5618 33.7492 36.8326 35.4916 39.5494 36.2197C40.4567 36.4628 41.3772 36.583 42.2919 36.583C43.0913 36.583 43.8861 36.491 44.6634 36.309L49.2845 44.315C49.8509 45.2965 50.8824 45.8457 51.9418 45.8456C52.461 45.8456 52.9869 45.7136 53.4681 45.436C54.4129 44.8906 55 43.8737 55 42.7821C55 42.2472 54.858 41.7184 54.5891 41.2524ZM39.9664 34.6632C37.6653 34.0466 35.7419 32.5707 34.5507 30.5076C32.0919 26.2485 33.5563 20.7831 37.8153 18.3241C39.2164 17.5153 40.7475 17.1311 42.2598 17.1311C45.3444 17.1311 48.3488 18.7309 49.9988 21.5888C51.1899 23.6519 51.5063 26.0554 50.8897 28.3566C50.2731 30.6578 48.7972 32.581 46.7341 33.7722C44.6711 34.9634 42.2676 35.2796 39.9664 34.6632ZM52.6627 44.0404C51.9695 44.4407 51.0801 44.2024 50.6801 43.5095L46.2342 35.8069C46.6797 35.6251 47.1161 35.4124 47.54 35.1677C47.9642 34.9228 48.3659 34.6501 48.7463 34.3549L53.1936 42.0578C53.3212 42.2792 53.3887 42.5297 53.3887 42.7822C53.3887 43.2997 53.1104 43.7819 52.6627 44.0404Z" fill="#1B73E8"/>
<path d="M49.5797 28.3175C50.1485 26.4853 50.013 24.5238 49.1982 22.7943C49.0085 22.3917 48.5286 22.2192 48.1261 22.4088C47.7235 22.5985 47.5509 23.0784 47.7406 23.481C48.3833 24.8452 48.49 26.3931 48.0409 27.8396C47.5893 29.2941 46.6137 30.5147 45.2938 31.2768C43.8971 32.0833 42.2698 32.2973 40.712 31.8799C39.1542 31.4625 37.852 30.4634 37.0457 29.0667C35.381 26.1834 36.3725 22.4833 39.2558 20.8186C41.364 19.6016 43.9802 19.7643 45.9215 21.2329C46.2764 21.5015 46.7816 21.4316 47.05 21.0766C47.3185 20.7218 47.2485 20.2165 46.8936 19.9481C44.4346 18.0874 41.1202 17.8815 38.45 19.4231C36.6806 20.4447 35.4148 22.0942 34.886 24.0678C34.3572 26.0414 34.6286 28.1028 35.6502 29.8722C36.6718 31.6418 38.3214 32.9074 40.2949 33.4364C40.9539 33.613 41.6228 33.7003 42.2872 33.7003C43.6125 33.7003 44.9208 33.3527 46.0993 32.6722C47.7716 31.7069 49.0076 30.1604 49.5797 28.3175Z" fill="#1B73E8"/>
</svg>
