<svg width="55" height="48" viewBox="0 0 55 48" fill="none" xmlns="http://www.w3.org/2000/svg">
<path d="M50.9717 6.68359H48.1507C47.7056 6.68359 47.345 6.9974 47.345 7.38468C47.345 7.77195 47.7056 8.08576 48.1507 8.08576H50.9717C52.3044 8.08576 53.3887 9.02932 53.3887 10.189V13.414H1.61133V10.189C1.61133 9.02932 2.69554 8.08576 4.02832 8.08576H44.6133C45.0583 8.08576 45.4189 7.77195 45.4189 7.38468C45.4189 6.9974 45.0583 6.68359 44.6133 6.68359H4.02832C1.80705 6.68359 0 8.25607 0 10.189V17.9178C0 18.3051 0.360723 18.6189 0.805664 18.6189C1.25061 18.6189 1.61133 18.3051 1.61133 17.9178V14.8161H53.3887V32.8915C53.3887 33.2788 53.7493 33.5926 54.1943 33.5926C54.6394 33.5926 55 33.2788 55 32.8915V10.189C55 8.25607 53.1929 6.68359 50.9717 6.68359V6.68359Z" fill="#1B73E8"/>
<path d="M54.1943 35.1471C53.7493 35.1471 53.3887 35.4609 53.3887 35.8482V37.6716C53.3887 38.8313 52.3044 39.7748 50.9717 39.7748H4.02832C2.69554 39.7748 1.61133 38.8313 1.61133 37.6716V20.9267C1.61133 20.5394 1.25061 20.2256 0.805664 20.2256C0.360723 20.2256 0 20.5394 0 20.9267V37.6716C0 39.6045 1.80705 41.177 4.02832 41.177H50.9717C53.1929 41.177 55 39.6045 55 37.6716V35.8482C55 35.461 54.6394 35.1471 54.1943 35.1471Z" fill="#1B73E8"/>
<path d="M11.6534 21.9162C11.3387 21.6425 10.8286 21.6425 10.514 21.9162L5.67253 26.1292C5.52139 26.2608 5.43652 26.439 5.43652 26.6251C5.43652 26.8111 5.52139 26.9892 5.67253 27.1209L10.45 31.2782C10.6073 31.415 10.8135 31.4835 11.0197 31.4835C11.2258 31.4835 11.4321 31.415 11.5893 31.2782C11.904 31.0043 11.904 30.5605 11.5893 30.2867L7.3815 26.6251L11.6534 22.9078C11.9681 22.6339 11.9681 22.1901 11.6534 21.9162V21.9162Z" fill="#1B73E8"/>
<path d="M22.4881 31.2782C22.6454 31.415 22.8516 31.4835 23.0578 31.4835C23.2639 31.4835 23.4702 31.415 23.6274 31.2782L28.405 27.1209C28.5561 26.9893 28.6409 26.8111 28.6409 26.6251C28.6409 26.439 28.5561 26.2609 28.405 26.1292L23.5634 21.9162C23.2488 21.6425 22.7386 21.6425 22.4241 21.9162C22.1095 22.1901 22.1095 22.6339 22.4241 22.9077L26.696 26.6251L22.4882 30.2866C22.1735 30.5606 22.1735 31.0044 22.4881 31.2782V31.2782Z" fill="#1B73E8"/>
<path d="M14.1786 33.8607C14.5036 33.8607 14.8098 33.6884 14.932 33.4082L20.6569 20.2841C20.8148 19.9221 20.6056 19.5173 20.1896 19.3798C19.7737 19.2423 19.3083 19.4245 19.1505 19.7865L13.4256 32.9107C13.2677 33.2727 13.4769 33.6775 13.8929 33.8149C13.987 33.8461 14.0835 33.8607 14.1786 33.8607V33.8607Z" fill="#1B73E8"/>
<path d="M3.54556 10.7844C3.54556 11.9441 4.62977 12.8876 5.96255 12.8876C7.29534 12.8876 8.37955 11.9441 8.37955 10.7844C8.37955 9.62471 7.29534 8.68115 5.96255 8.68115C4.62977 8.68115 3.54556 9.62471 3.54556 10.7844V10.7844ZM6.76822 10.7844C6.76822 11.171 6.40685 11.4855 5.96255 11.4855C5.51826 11.4855 5.15689 11.171 5.15689 10.7844C5.15689 10.3978 5.51826 10.0833 5.96255 10.0833C6.40685 10.0833 6.76822 10.3978 6.76822 10.7844Z" fill="#1B73E8"/>
<path d="M9.79321 10.7844C9.79321 11.9441 10.8774 12.8876 12.2102 12.8876C13.543 12.8876 14.6272 11.9441 14.6272 10.7844C14.6272 9.62471 13.543 8.68115 12.2102 8.68115C10.8774 8.68115 9.79321 9.62471 9.79321 10.7844V10.7844ZM13.0159 10.7844C13.0159 11.171 12.6545 11.4855 12.2102 11.4855C11.7659 11.4855 11.4045 11.171 11.4045 10.7844C11.4045 10.3978 11.7659 10.0833 12.2102 10.0833C12.6545 10.0833 13.0159 10.3978 13.0159 10.7844Z" fill="#1B73E8"/>
<path d="M16.0408 10.7844C16.0408 11.9441 17.125 12.8876 18.4578 12.8876C19.7905 12.8876 20.8748 11.9441 20.8748 10.7844C20.8748 9.62471 19.7905 8.68115 18.4578 8.68115C17.125 8.68115 16.0408 9.62471 16.0408 10.7844V10.7844ZM19.2634 10.7844C19.2634 11.171 18.9021 11.4855 18.4578 11.4855C18.0135 11.4855 17.6521 11.171 17.6521 10.7844C17.6521 10.3978 18.0135 10.0833 18.4578 10.0833C18.9021 10.0833 19.2634 10.3978 19.2634 10.7844Z" fill="#1B73E8"/>
<path d="M36.04 22.6557H41.0889C42.4215 22.6557 43.5059 21.7121 43.5059 20.5525C43.5059 19.3928 42.4215 18.4492 41.0889 18.4492H36.04C34.7074 18.4492 33.623 19.3928 33.623 20.5525C33.623 21.7121 34.7074 22.6557 36.04 22.6557ZM36.04 19.8514H41.0889C41.5332 19.8514 41.8945 20.1658 41.8945 20.5525C41.8945 20.9391 41.5332 21.2535 41.0889 21.2535H36.04C35.5957 21.2535 35.2344 20.9391 35.2344 20.5525C35.2344 20.1658 35.5957 19.8514 36.04 19.8514Z" fill="#1B73E8"/>
<path d="M36.04 28.2646H49.3604C50.693 28.2646 51.7773 27.321 51.7773 26.1613C51.7773 25.0017 50.693 24.0581 49.3604 24.0581H36.04C34.7074 24.0581 33.623 25.0017 33.623 26.1613C33.623 27.321 34.7074 28.2646 36.04 28.2646ZM36.04 25.4603H49.3604C49.8046 25.4603 50.166 25.7747 50.166 26.1613C50.166 26.548 49.8046 26.8624 49.3604 26.8624H36.04C35.5957 26.8624 35.2344 26.548 35.2344 26.1613C35.2344 25.7747 35.5957 25.4603 36.04 25.4603Z" fill="#1B73E8"/>
<path d="M36.04 33.873H45.4035C46.7361 33.873 47.8205 32.9294 47.8205 31.7697C47.8205 30.6101 46.7361 29.6665 45.4035 29.6665H36.04C34.7074 29.6665 33.623 30.6101 33.623 31.7697C33.623 32.9294 34.7074 33.873 36.04 33.873ZM36.04 31.0687H45.4035C45.8478 31.0687 46.2091 31.3831 46.2091 31.7697C46.2091 32.1564 45.8478 32.4708 45.4035 32.4708H36.04C35.5957 32.4708 35.2344 32.1564 35.2344 31.7697C35.2344 31.3831 35.5957 31.0687 36.04 31.0687Z" fill="#1B73E8"/>
</svg>
