<svg width="220" height="22" viewBox="0 0 220 22" fill="none" xmlns="http://www.w3.org/2000/svg">
<path fill-rule="evenodd" clip-rule="evenodd" d="M0 7.60254V8.50319H2.06203V13.8466H3.0441V8.50319H5.11545V7.60254H0Z" fill="white"/>
<path fill-rule="evenodd" clip-rule="evenodd" d="M16.0622 13.8462H15.0806V7.60254H16.0622V10.0641H19.3211V7.60254H20.3036V13.8462H19.3211V10.9647H16.0622V13.8462Z" fill="white"/>
<path fill-rule="evenodd" clip-rule="evenodd" d="M35.428 13.8462H30.865V7.60254H35.3123V8.50319H31.8475V10.0641H34.6692V10.9647H31.8475V12.9451H35.428V13.8462Z" fill="white"/>
<path fill-rule="evenodd" clip-rule="evenodd" d="M64.132 2.34046V9.77634H71.1006C72.5246 9.77634 73.6261 9.45552 74.4074 8.81347C75.1886 8.17184 75.5793 7.25849 75.5793 6.07342C75.5793 4.88835 75.1831 3.96993 74.393 3.31814C73.602 2.66635 72.5046 2.34046 71.1006 2.34046H64.132ZM64.1319 21.0933H61.9369V0.355469H71.2196C73.2359 0.355469 74.8323 0.864202 76.0088 1.88124C77.1849 2.89871 77.7734 4.2662 77.7734 5.98455C77.7734 7.46546 77.3438 8.70005 76.4833 9.68746C75.6233 10.6753 74.4222 11.2975 72.88 11.5544L79.5825 21.0933H77.0023L70.4782 11.7613H64.1319V21.0933Z" fill="white"/>
<mask id="mask0_2_221" style="mask-type:alpha" maskUnits="userSpaceOnUse" x="105" y="0" width="22" height="22">
<path fill-rule="evenodd" clip-rule="evenodd" d="M105.839 0H126.717V21.4487H105.839V0Z" fill="white"/>
</mask>
<g mask="url(#mask0_2_221)">
<path fill-rule="evenodd" clip-rule="evenodd" d="M110.435 16.916C111.998 18.5751 113.945 19.4047 116.278 19.4047C118.61 19.4047 120.558 18.5751 122.12 16.916C123.702 15.2375 124.493 13.1733 124.493 10.7245C124.493 8.27517 123.702 6.21146 122.12 4.53247C120.558 2.8738 118.61 2.04425 116.278 2.04425C113.945 2.04425 111.998 2.8738 110.435 4.53247C108.854 6.21146 108.063 8.27517 108.063 10.7245C108.063 13.1733 108.854 15.2375 110.435 16.916ZM108.804 3.08118C110.801 1.02678 113.292 0 116.278 0C119.243 0 121.725 1.02678 123.721 3.08118C125.718 5.13516 126.717 7.68306 126.717 10.7245C126.717 13.7857 125.718 16.3434 123.721 18.3973C121.744 20.4319 119.263 21.4489 116.278 21.4489C113.272 21.4489 110.781 20.4319 108.804 18.3973C106.827 16.3628 105.839 13.8052 105.839 10.7245C105.839 7.66316 106.827 5.11527 108.804 3.08118Z" fill="white"/>
</g>
<mask id="mask1_2_221" style="mask-type:alpha" maskUnits="userSpaceOnUse" x="153" y="0" width="22" height="22">
<path fill-rule="evenodd" clip-rule="evenodd" d="M153.194 0H174.072V21.4487H153.194V0Z" fill="white"/>
</mask>
<g mask="url(#mask1_2_221)">
<path fill-rule="evenodd" clip-rule="evenodd" d="M157.79 16.916C159.352 18.5751 161.299 19.4047 163.633 19.4047C165.965 19.4047 167.913 18.5751 169.475 16.916C171.056 15.2375 171.847 13.1733 171.847 10.7245C171.847 8.27517 171.056 6.21146 169.475 4.53247C167.913 2.8738 165.965 2.04425 163.633 2.04425C161.299 2.04425 159.352 2.8738 157.79 4.53247C156.209 6.21146 155.418 8.27517 155.418 10.7245C155.418 13.1733 156.209 15.2375 157.79 16.916ZM156.159 3.08118C158.156 1.02678 160.647 0 163.633 0C166.598 0 169.079 1.02678 171.076 3.08118C173.073 5.13516 174.072 7.68306 174.072 10.7245C174.072 13.7857 173.073 16.3434 171.076 18.3973C169.099 20.4319 166.618 21.4489 163.633 21.4489C160.627 21.4489 158.136 20.4319 156.159 18.3973C154.182 16.3628 153.194 13.8052 153.194 10.7245C153.194 7.66316 154.182 5.11527 156.159 3.08118Z" fill="white"/>
</g>
<mask id="mask2_2_221" style="mask-type:alpha" maskUnits="userSpaceOnUse" x="200" y="0" width="20" height="22">
<path fill-rule="evenodd" clip-rule="evenodd" d="M200.694 0.35498H220V21.0928H200.694V0.35498Z" fill="white"/>
</mask>
<g mask="url(#mask2_2_221)">
<path fill-rule="evenodd" clip-rule="evenodd" d="M202.859 21.0928H200.694V0.35498H202.859L210.362 10.398L217.865 0.35498H220V21.0928H217.835V3.67317L211.044 12.7385H209.71L202.859 3.67317V21.0928Z" fill="white"/>
</g>
</svg>
