<svg width="220" height="22" viewBox="0 0 220 22" fill="none" xmlns="http://www.w3.org/2000/svg">
<path fill-rule="evenodd" clip-rule="evenodd" d="M0 7.60229V8.50295H2.06203V13.8463H3.0441V8.50295H5.11545V7.60229H0Z" fill="white"/>
<path fill-rule="evenodd" clip-rule="evenodd" d="M16.0622 13.8462H15.0806V7.60254H16.0622V10.0641H19.3211V7.60254H20.3036V13.8462H19.3211V10.9647H16.0622V13.8462Z" fill="white"/>
<path fill-rule="evenodd" clip-rule="evenodd" d="M35.428 13.8462H30.865V7.60254H35.3123V8.50319H31.8475V10.0641H34.6692V10.9647H31.8475V12.9451H35.428V13.8462Z" fill="white"/>
<path fill-rule="evenodd" clip-rule="evenodd" d="M64.132 2.34024V9.77612H71.1006C72.5246 9.77612 73.6261 9.45531 74.4074 8.81326C75.1886 8.17162 75.5793 7.25828 75.5793 6.07321C75.5793 4.88814 75.1831 3.96971 74.393 3.31792C73.602 2.66613 72.5046 2.34024 71.1006 2.34024H64.132ZM64.1319 21.0931H61.9369V0.355225H71.2196C73.2359 0.355225 74.8323 0.863958 76.0088 1.881C77.1849 2.89847 77.7734 4.26595 77.7734 5.9843C77.7734 7.46521 77.3438 8.6998 76.4833 9.68722C75.6233 10.6751 74.4222 11.2972 72.88 11.5541L79.5825 21.0931H77.0023L70.4782 11.7611H64.1319V21.0931Z" fill="white"/>
<mask id="mask0_656_509" style="mask-type:luminance" maskUnits="userSpaceOnUse" x="105" y="0" width="22" height="22">
<path fill-rule="evenodd" clip-rule="evenodd" d="M105.839 0H126.717V21.4487H105.839V0Z" fill="white"/>
</mask>
<g mask="url(#mask0_656_509)">
<path fill-rule="evenodd" clip-rule="evenodd" d="M110.435 16.9159C111.998 18.575 113.945 19.4046 116.278 19.4046C118.61 19.4046 120.558 18.575 122.12 16.9159C123.702 15.2374 124.493 13.1732 124.493 10.7244C124.493 8.27508 123.702 6.21137 122.12 4.53238C120.558 2.8737 118.61 2.04416 116.278 2.04416C113.945 2.04416 111.998 2.8737 110.435 4.53238C108.854 6.21137 108.063 8.27508 108.063 10.7244C108.063 13.1732 108.854 15.2374 110.435 16.9159ZM108.804 3.08118C110.801 1.02678 113.292 0 116.278 0C119.243 0 121.725 1.02678 123.721 3.08118C125.718 5.13516 126.717 7.68306 126.717 10.7245C126.717 13.7857 125.718 16.3434 123.721 18.3973C121.744 20.4319 119.263 21.4489 116.278 21.4489C113.272 21.4489 110.781 20.4319 108.804 18.3973C106.827 16.3628 105.839 13.8052 105.839 10.7245C105.839 7.66316 106.827 5.11527 108.804 3.08118Z" fill="white"/>
</g>
<mask id="mask1_656_509" style="mask-type:luminance" maskUnits="userSpaceOnUse" x="153" y="0" width="22" height="22">
<path fill-rule="evenodd" clip-rule="evenodd" d="M153.194 0H174.072V21.4487H153.194V0Z" fill="white"/>
</mask>
<g mask="url(#mask1_656_509)">
<path fill-rule="evenodd" clip-rule="evenodd" d="M157.79 16.9159C159.352 18.575 161.299 19.4046 163.633 19.4046C165.965 19.4046 167.913 18.575 169.475 16.9159C171.056 15.2374 171.847 13.1732 171.847 10.7244C171.847 8.27508 171.056 6.21137 169.475 4.53238C167.913 2.8737 165.965 2.04416 163.633 2.04416C161.299 2.04416 159.352 2.8737 157.79 4.53238C156.209 6.21137 155.418 8.27508 155.418 10.7244C155.418 13.1732 156.209 15.2374 157.79 16.9159ZM156.159 3.08118C158.156 1.02678 160.647 0 163.633 0C166.598 0 169.079 1.02678 171.076 3.08118C173.073 5.13516 174.072 7.68306 174.072 10.7245C174.072 13.7857 173.073 16.3434 171.076 18.3973C169.099 20.4319 166.618 21.4489 163.633 21.4489C160.627 21.4489 158.136 20.4319 156.159 18.3973C154.182 16.3628 153.194 13.8052 153.194 10.7245C153.194 7.66316 154.182 5.11527 156.159 3.08118Z" fill="white"/>
</g>
<mask id="mask2_656_509" style="mask-type:luminance" maskUnits="userSpaceOnUse" x="200" y="0" width="20" height="22">
<path fill-rule="evenodd" clip-rule="evenodd" d="M200.694 0.355225H220V21.0931H200.694V0.355225Z" fill="white"/>
</mask>
<g mask="url(#mask2_656_509)">
<path fill-rule="evenodd" clip-rule="evenodd" d="M202.859 21.0931H200.694V0.355225H202.859L210.362 10.3983L217.865 0.355225H220V21.0931H217.835V3.67342L211.044 12.7388H209.71L202.859 3.67342V21.0931Z" fill="white"/>
</g>
</svg>
